# xmcd
#
# Track frame offsets:
#	150
#	21738
#	41229
#	59621
#	79083
#	101432
#	121554
#	142414
#	158495
#	177480
#	194731
#	212742
#	239673
#	256151
#	279108
#	299532
#	318804
#
# Disc length: 4523 seconds
#
# Revision: 1
# Processed by: cddbd v1.5.2PL0 Copyright (c) Steve Scherf et al.
# Submitted via: audiograbber 1.83.01
#
DISCID=0411a911
DTITLE=Various Artist - Legends Sereies 228
DYEAR=1900
DGENRE=Karaoke
TTITLE0=James Ingram - Just Once
TTITLE1=James Ingram - One Hundred Ways
TTITLE2=James Ingram - There's No Easy Way
TTITLE3=James Ingram - I Don't Have The Heart
TTITLE4=James Ingram - Get Ready
TTITLE5=James Ingram and Michael McDonald - Yah Mo Be There
TTITLE6=James Ingram and Patti Austin - How Do You Keep The Music Playing
TTITLE7=James Ingram and Patti Austin - Baby Come To Me
TTITLE8=James Ingram and Linda Ronstadt - Somewhere Out There
TTITLE9=Peabo Bryson and Roberta Flack - Tonight I Celebrate My Love
TTITLE10=Peabo Bryson - If Ever You're In My Arms Again
TTITLE11=Peabo Bryson - Show And Tell
TTITLE12=Peabo Bryson - Minute By Minute
TTITLE13=Peabo Bryson - Can You Stop The Rain
TTITLE14=Peabo Bryson - Feel The Fire
TTITLE15=Peabo Bryson and Celine Dion - Beauty And The Beast
TTITLE16=Peabo Bryson and Regina Belle - A Whole New World
EXTD=
EXTT0=
EXTT1=
EXTT2=
EXTT3=
EXTT4=
EXTT5=
EXTT6=
EXTT7=
EXTT8=
EXTT9=
EXTT10=
EXTT11=
EXTT12=
EXTT13=
EXTT14=
EXTT15=
EXTT16=
PLAYORDER=
